<svg width="16" height="11.418886" viewBox="0 0 16 11.418886" xmlns="http://www.w3.org/2000/svg">
<path d="M9.71586 1.40245C9.39322 1.07981 9.39322 0.566516 9.71586 0.236544C10.0385 -0.0787634 10.5518 -0.0787635 10.8818 0.236544L15.758 5.1128C15.912 5.26679 16 5.47211 16 5.70675C16 5.9414 15.9047 6.14672 15.758 6.3007L10.8818 11.177C10.5591 11.4996 10.0458 11.4996 9.71586 11.177C9.38589 10.8543 9.39322 10.341 9.71586 10.0111L13.2062 6.52802L0.813932 6.52802C0.359303 6.52802 -2.29815e-07 6.16138 -2.49688e-07 5.70676C-2.6956e-07 5.25213 0.359303 4.89282 0.813932 4.89282L13.2062 4.89282L9.71586 1.40245Z"/>
</svg>
