<?xml version="1.0" encoding="UTF-8" standalone="no"?>
<svg
   xmlns:dc="http://purl.org/dc/elements/1.1/"
   xmlns:cc="http://creativecommons.org/ns#"
   xmlns:rdf="http://www.w3.org/1999/02/22-rdf-syntax-ns#"
   xmlns:svg="http://www.w3.org/2000/svg"
   xmlns="http://www.w3.org/2000/svg"
   height="19.136427"
   width="19.110258"
   id="svg45"
   xml:space="preserve"
   viewBox="0 0 19.110258 19.136427"
   y="0px"
   x="0px"
   version="1.1"><metadata
     id="metadata51"><rdf:RDF><cc:Work
         rdf:about=""><dc:format>image/svg+xml</dc:format><dc:type
           rdf:resource="http://purl.org/dc/dcmitype/StillImage" /><dc:title></dc:title></cc:Work></rdf:RDF></metadata><defs
     id="defs49" /><path
     id="path43"
     d="M 16.201933,0.53033025 9.555129,7.1771343 2.908325,0.53033025 c -0.707107,-0.707107 -1.767767,-0.636396 -2.40416295,0 -0.636396,0.63639605 -0.636396,1.76776705 0,2.40416305 L 7.150966,9.5812973 0.50416205,16.228101 c -0.707107,0.707107 -0.636396,1.767767 0,2.404163 0.70710695,0.707107 1.76776695,0.636396 2.40416295,0 l 6.646804,-6.646804 6.646804,6.646804 c 0.707107,0.707107 1.767767,0.636396 2.404163,0 0.636396,-0.636396 0.636396,-1.767767 0,-2.404163 l -6.646804,-6.6468037 6.646804,-6.646804 c 0.707107,-0.707107 0.636396,-1.767767 0,-2.40416305 -0.707107,-0.707107 -1.697056,-0.707107 -2.404163,0 z"
     class="st0" /></svg>